# xmcd CD database file
#
# Track frame offsets:
#	150
#	14964
#	29446
#	50892
#	70225
#	84419
#	99800
#	117887
#	129515
#	150767
#	163782
#	189299
#	209907
#	227126
#	247067
#	264410
#	288611
#	309155
#	321257
#
# Disc length: 4419 seconds
#
# Revision: 0
# Processed by: cddbd v1.5.2PL0 Copyright (c) Steve Scherf et al.
# Submitted via: CDex 1.70beta2
#
DISCID=0f114113
DTITLE=Various Artist - Les voix du jazz
DYEAR=2007
DGENRE=Jazz
TTITLE0=Norah Jones - Sunrise
TTITLE1=Katie Melva - Nine million bicylces
TTITLE2=Madeleine Peyroux - Walkin' after midnight
TTITLE3=Diana Krall - I'm just a lucky so and so
TTITLE4=Robin McKelle - Something's gotta give
TTITLE5=Sara Lazarus - Embraceable you
TTITLE6=Jamie Cullum - Mind trick
TTITLE7=Lisa Ekdahl - It's oh so quiet
TTITLE8=Laika Fatien - Eleanor rigby
TTITLE9=Stacey Kent - Que reste-t-il de nos amours
TTITLE10=Elisabeth Kontomanou - Sunny
TTITLE11=Anne Ducros - You're got a friend
TTITLE12=Eliane Elias - Girl from Ipanema
TTITLE13=Kennedy Johnson - The look of love
TTITLE14=Nicola Conte - Sea and sand
TTITLE15=Caecile Norby - Calling you
TTITLE16=Cassandra Wilson - Fragile
TTITLE17=Brisa Roche - Mystery man
TTITLE18=Angela McCluskey - I came arching
EXTD=YEAR: 2007
EXTT0=
EXTT1=
EXTT2=
EXTT3=
EXTT4=
EXTT5=
EXTT6=
EXTT7=
EXTT8=
EXTT9=
EXTT10=
EXTT11=
EXTT12=
EXTT13=
EXTT14=
EXTT15=
EXTT16=
EXTT17=
EXTT18=
PLAYORDER=
